<svg width="337" height="337" viewBox="0 0 337 337" fill="none" xmlns="http://www.w3.org/2000/svg">
<path d="M168.5 188.608L183.226 200.31C185.248 201.864 187.288 201.893 189.347 200.395C191.405 198.898 192.065 196.955 191.327 194.567L185.494 175.845L202.479 162.379C204.285 160.825 204.819 158.906 204.081 156.623C203.343 154.34 201.78 153.198 199.392 153.198H179.877L173.37 133.603C172.595 131.131 170.972 129.894 168.5 129.894C166.028 129.894 164.465 131.131 163.81 133.603L157.123 153.198H137.491C134.983 153.198 133.364 154.34 132.635 156.623C131.906 158.906 132.505 160.825 134.431 162.379L151.092 175.845L145.079 194.954C144.461 197.462 145.127 199.465 147.077 200.963C149.028 202.46 151.023 202.431 153.063 200.877L168.5 188.608ZM62.6472 266.792C57.0126 266.792 52.1835 264.78 48.1601 260.756C44.1367 256.733 42.125 251.904 42.125 246.269V217.043C42.125 215.165 42.572 213.358 43.466 211.624C44.3602 209.89 45.6984 208.591 47.4805 207.727C54.6694 203.766 60.3685 198.324 64.578 191.399C68.7877 184.474 70.8925 176.841 70.8925 168.5C70.8925 160.195 68.7877 152.571 64.578 145.628C60.3685 138.685 54.6694 133.234 47.4805 129.273C45.6984 128.409 44.3602 127.11 43.466 125.376C42.572 123.641 42.125 121.835 42.125 119.957V90.7305C42.125 85.0958 44.1367 80.2668 48.1601 76.2434C52.1835 72.22 57.0126 70.2083 62.6472 70.2083H274.353C279.987 70.2083 284.816 72.22 288.84 76.2434C292.863 80.2668 294.875 85.0958 294.875 90.7305V119.957C294.875 121.835 294.428 123.641 293.534 125.376C292.64 127.11 291.362 128.409 289.7 129.273C282.391 133.234 276.631 138.685 272.422 145.628C268.212 152.571 266.108 160.195 266.108 168.5C266.108 176.841 268.212 184.474 272.422 191.399C276.631 198.324 282.391 203.766 289.7 207.727C291.362 208.591 292.64 209.89 293.534 211.624C294.428 213.358 294.875 215.165 294.875 217.043V246.269C294.875 251.904 292.863 256.733 288.84 260.756C284.816 264.78 279.987 266.792 274.353 266.792H62.6472ZM62.6472 254.91H274.353C276.873 254.91 278.943 254.1 280.563 252.48C282.184 250.86 282.994 248.79 282.994 246.269V218.366C274.299 212.953 267.33 205.871 262.089 197.119C256.847 188.367 254.226 178.827 254.226 168.5C254.226 158.173 256.847 148.633 262.089 139.881C267.33 131.129 274.299 124.047 282.994 118.634V90.7305C282.994 88.2103 282.184 86.14 280.563 84.5199C278.943 82.8997 276.873 82.0896 274.353 82.0896H62.6472C60.127 82.0896 58.0568 82.8997 56.4366 84.5199C54.8164 86.14 54.0064 88.2103 54.0064 90.7305V118.634C62.8573 124.047 69.8647 131.129 75.0285 139.881C80.1921 148.633 82.7739 158.173 82.7739 168.5C82.7739 178.827 80.1921 188.367 75.0285 197.119C69.8647 205.871 62.8573 212.953 54.0064 218.366V246.269C54.0064 248.79 54.8164 250.86 56.4366 252.48C58.0568 254.1 60.127 254.91 62.6472 254.91Z" fill="white"/>
</svg>
